<mxfile host="app.diagrams.net" modified="2024-01-17T21:25:24.563Z" agent="Mozilla/5.0 (Windows NT 10.0; Win64; x64; rv:121.0) Gecko/20100101 Firefox/121.0" etag="MPdSMmI74roZbALTc95l" version="22.1.18" type="device" pages="3">
  <diagram name="Diagramme de cas d&#39;utlisation" id="22jYKfBDnZWw5TZZHojw">
    <mxGraphModel dx="1326" dy="895" grid="1" gridSize="10" guides="1" tooltips="1" connect="1" arrows="1" fold="1" page="0" pageScale="1" pageWidth="850" pageHeight="1100" math="0" shadow="0">
      <root>
        <mxCell id="0" />
        <mxCell id="1" parent="0" />
        <mxCell id="Y_bpcdaq26l3CIiZRV6S-45" value="" style="rounded=0;whiteSpace=wrap;html=1;fillColor=#dae8fc;strokeColor=#6c8ebf;" vertex="1" parent="1">
          <mxGeometry x="-70" y="-200" width="720" height="590" as="geometry" />
        </mxCell>
        <mxCell id="Y_bpcdaq26l3CIiZRV6S-1" value="&lt;div style=&quot;font-size: 14px;&quot;&gt;Se connecter&lt;/div&gt;" style="ellipse;whiteSpace=wrap;html=1;fontSize=14;" vertex="1" parent="1">
          <mxGeometry x="200" y="180" width="120" height="80" as="geometry" />
        </mxCell>
        <mxCell id="Y_bpcdaq26l3CIiZRV6S-2" value="Effectuer un paiement" style="ellipse;whiteSpace=wrap;html=1;fontSize=14;" vertex="1" parent="1">
          <mxGeometry x="40" y="110" width="120" height="80" as="geometry" />
        </mxCell>
        <mxCell id="Y_bpcdaq26l3CIiZRV6S-46" style="edgeStyle=orthogonalEdgeStyle;rounded=0;orthogonalLoop=1;jettySize=auto;html=1;" edge="1" parent="1" source="Y_bpcdaq26l3CIiZRV6S-3" target="Y_bpcdaq26l3CIiZRV6S-15">
          <mxGeometry relative="1" as="geometry">
            <Array as="points">
              <mxPoint x="-160" y="130" />
              <mxPoint x="-160" y="410" />
            </Array>
          </mxGeometry>
        </mxCell>
        <mxCell id="Y_bpcdaq26l3CIiZRV6S-3" value="&lt;div style=&quot;font-size: 14px;&quot;&gt;Etudiant&lt;/div&gt;" style="shape=umlActor;verticalLabelPosition=bottom;verticalAlign=top;html=1;outlineConnect=0;fontSize=14;" vertex="1" parent="1">
          <mxGeometry x="-138" y="100" width="30" height="60" as="geometry" />
        </mxCell>
        <mxCell id="Y_bpcdaq26l3CIiZRV6S-5" value="" style="endArrow=none;html=1;rounded=0;fontSize=14;" edge="1" parent="1" source="Y_bpcdaq26l3CIiZRV6S-3" target="Y_bpcdaq26l3CIiZRV6S-2">
          <mxGeometry width="50" height="50" relative="1" as="geometry">
            <mxPoint x="-70" y="139" as="sourcePoint" />
            <mxPoint x="210" y="123" as="targetPoint" />
          </mxGeometry>
        </mxCell>
        <mxCell id="Y_bpcdaq26l3CIiZRV6S-9" value="" style="endArrow=classic;html=1;rounded=0;dashed=1;" edge="1" parent="1" source="Y_bpcdaq26l3CIiZRV6S-2" target="Y_bpcdaq26l3CIiZRV6S-1">
          <mxGeometry width="50" height="50" relative="1" as="geometry">
            <mxPoint x="330" y="130" as="sourcePoint" />
            <mxPoint x="380" y="80" as="targetPoint" />
          </mxGeometry>
        </mxCell>
        <mxCell id="Y_bpcdaq26l3CIiZRV6S-10" value="&amp;lt;&amp;lt; include &amp;gt;&amp;gt;" style="edgeLabel;html=1;align=center;verticalAlign=middle;resizable=0;points=[];" vertex="1" connectable="0" parent="Y_bpcdaq26l3CIiZRV6S-9">
          <mxGeometry x="-0.0235" relative="1" as="geometry">
            <mxPoint as="offset" />
          </mxGeometry>
        </mxCell>
        <mxCell id="Y_bpcdaq26l3CIiZRV6S-21" style="edgeStyle=orthogonalEdgeStyle;rounded=0;orthogonalLoop=1;jettySize=auto;html=1;" edge="1" parent="1" source="Y_bpcdaq26l3CIiZRV6S-11" target="Y_bpcdaq26l3CIiZRV6S-15">
          <mxGeometry relative="1" as="geometry">
            <Array as="points">
              <mxPoint x="750" y="150" />
              <mxPoint x="750" y="410" />
            </Array>
          </mxGeometry>
        </mxCell>
        <mxCell id="Y_bpcdaq26l3CIiZRV6S-11" value="&lt;div&gt;Administrateur&lt;/div&gt;" style="shape=umlActor;verticalLabelPosition=bottom;verticalAlign=top;html=1;outlineConnect=0;" vertex="1" parent="1">
          <mxGeometry x="679" y="120" width="30" height="60" as="geometry" />
        </mxCell>
        <mxCell id="Y_bpcdaq26l3CIiZRV6S-12" value="Ajouter" style="ellipse;whiteSpace=wrap;html=1;fontSize=14;" vertex="1" parent="1">
          <mxGeometry x="225" y="10" width="120" height="80" as="geometry" />
        </mxCell>
        <mxCell id="Y_bpcdaq26l3CIiZRV6S-13" value="" style="endArrow=none;html=1;rounded=0;fontSize=14;" edge="1" parent="1" source="Y_bpcdaq26l3CIiZRV6S-11" target="Y_bpcdaq26l3CIiZRV6S-27">
          <mxGeometry width="50" height="50" relative="1" as="geometry">
            <mxPoint x="-70" y="137" as="sourcePoint" />
            <mxPoint x="213" y="73" as="targetPoint" />
          </mxGeometry>
        </mxCell>
        <mxCell id="Y_bpcdaq26l3CIiZRV6S-15" value="Utilisateur" style="shape=umlActor;verticalLabelPosition=bottom;verticalAlign=top;html=1;outlineConnect=0;" vertex="1" parent="1">
          <mxGeometry x="270" y="390" width="30" height="60" as="geometry" />
        </mxCell>
        <mxCell id="Y_bpcdaq26l3CIiZRV6S-22" value="" style="endArrow=none;html=1;rounded=0;" edge="1" parent="1" source="Y_bpcdaq26l3CIiZRV6S-15" target="Y_bpcdaq26l3CIiZRV6S-1">
          <mxGeometry width="50" height="50" relative="1" as="geometry">
            <mxPoint x="150" y="320" as="sourcePoint" />
            <mxPoint x="200" y="270" as="targetPoint" />
          </mxGeometry>
        </mxCell>
        <mxCell id="Y_bpcdaq26l3CIiZRV6S-26" value="&lt;div&gt;Supprimer&lt;br&gt;&lt;/div&gt;" style="ellipse;whiteSpace=wrap;html=1;fontSize=14;" vertex="1" parent="1">
          <mxGeometry x="280" y="-90" width="120" height="80" as="geometry" />
        </mxCell>
        <mxCell id="Y_bpcdaq26l3CIiZRV6S-27" value="&lt;div&gt;Gérer étudiants&lt;/div&gt;" style="ellipse;whiteSpace=wrap;html=1;fontSize=14;" vertex="1" parent="1">
          <mxGeometry x="430" y="170" width="120" height="80" as="geometry" />
        </mxCell>
        <mxCell id="Y_bpcdaq26l3CIiZRV6S-29" value="" style="endArrow=block;endSize=16;endFill=0;html=1;rounded=0;" edge="1" parent="1" source="Y_bpcdaq26l3CIiZRV6S-26" target="Y_bpcdaq26l3CIiZRV6S-27">
          <mxGeometry width="160" relative="1" as="geometry">
            <mxPoint x="30" y="-40" as="sourcePoint" />
            <mxPoint x="190" y="-40" as="targetPoint" />
          </mxGeometry>
        </mxCell>
        <mxCell id="Y_bpcdaq26l3CIiZRV6S-30" value="" style="endArrow=block;endSize=16;endFill=0;html=1;rounded=0;" edge="1" parent="1" source="Y_bpcdaq26l3CIiZRV6S-12" target="Y_bpcdaq26l3CIiZRV6S-27">
          <mxGeometry width="160" relative="1" as="geometry">
            <mxPoint x="421" y="5" as="sourcePoint" />
            <mxPoint x="339" y="14" as="targetPoint" />
          </mxGeometry>
        </mxCell>
        <mxCell id="Y_bpcdaq26l3CIiZRV6S-31" value="" style="endArrow=classic;html=1;rounded=0;dashed=1;" edge="1" parent="1" source="Y_bpcdaq26l3CIiZRV6S-27" target="Y_bpcdaq26l3CIiZRV6S-1">
          <mxGeometry width="50" height="50" relative="1" as="geometry">
            <mxPoint x="150" y="95" as="sourcePoint" />
            <mxPoint x="240" y="196" as="targetPoint" />
          </mxGeometry>
        </mxCell>
        <mxCell id="Y_bpcdaq26l3CIiZRV6S-32" value="&amp;lt;&amp;lt; include &amp;gt;&amp;gt;" style="edgeLabel;html=1;align=center;verticalAlign=middle;resizable=0;points=[];" vertex="1" connectable="0" parent="Y_bpcdaq26l3CIiZRV6S-31">
          <mxGeometry x="-0.0235" relative="1" as="geometry">
            <mxPoint as="offset" />
          </mxGeometry>
        </mxCell>
        <mxCell id="Y_bpcdaq26l3CIiZRV6S-33" value="Lister" style="ellipse;whiteSpace=wrap;html=1;fontSize=14;" vertex="1" parent="1">
          <mxGeometry x="410" y="-100" width="120" height="80" as="geometry" />
        </mxCell>
        <mxCell id="Y_bpcdaq26l3CIiZRV6S-34" value="" style="endArrow=block;endSize=16;endFill=0;html=1;rounded=0;" edge="1" parent="1" source="Y_bpcdaq26l3CIiZRV6S-33" target="Y_bpcdaq26l3CIiZRV6S-27">
          <mxGeometry width="160" relative="1" as="geometry">
            <mxPoint x="483" y="40" as="sourcePoint" />
            <mxPoint x="496" y="180" as="targetPoint" />
          </mxGeometry>
        </mxCell>
        <mxCell id="Y_bpcdaq26l3CIiZRV6S-35" value="Consulter les mois payés" style="ellipse;whiteSpace=wrap;html=1;fontSize=14;" vertex="1" parent="1">
          <mxGeometry x="40" y="10" width="110" height="80" as="geometry" />
        </mxCell>
        <mxCell id="Y_bpcdaq26l3CIiZRV6S-36" value="" style="endArrow=none;html=1;rounded=0;fontSize=14;" edge="1" parent="1" source="Y_bpcdaq26l3CIiZRV6S-3" target="Y_bpcdaq26l3CIiZRV6S-35">
          <mxGeometry width="50" height="50" relative="1" as="geometry">
            <mxPoint x="-70" y="142" as="sourcePoint" />
            <mxPoint x="51" y="154" as="targetPoint" />
          </mxGeometry>
        </mxCell>
        <mxCell id="Y_bpcdaq26l3CIiZRV6S-37" value="Filtrer par l&#39;année" style="ellipse;whiteSpace=wrap;html=1;fontSize=14;" vertex="1" parent="1">
          <mxGeometry y="-130" width="110" height="80" as="geometry" />
        </mxCell>
        <mxCell id="Y_bpcdaq26l3CIiZRV6S-38" value="" style="endArrow=classic;html=1;rounded=0;dashed=1;" edge="1" parent="1" source="Y_bpcdaq26l3CIiZRV6S-37" target="Y_bpcdaq26l3CIiZRV6S-35">
          <mxGeometry width="50" height="50" relative="1" as="geometry">
            <mxPoint x="170" y="-50" as="sourcePoint" />
            <mxPoint x="200" y="-20" as="targetPoint" />
          </mxGeometry>
        </mxCell>
        <mxCell id="Y_bpcdaq26l3CIiZRV6S-39" value="&amp;lt;&amp;lt; extend &amp;gt;&amp;gt;" style="edgeLabel;html=1;align=center;verticalAlign=middle;resizable=0;points=[];" vertex="1" connectable="0" parent="Y_bpcdaq26l3CIiZRV6S-38">
          <mxGeometry x="-0.0235" relative="1" as="geometry">
            <mxPoint as="offset" />
          </mxGeometry>
        </mxCell>
        <mxCell id="Y_bpcdaq26l3CIiZRV6S-41" value="Mise à jour" style="ellipse;whiteSpace=wrap;html=1;fontSize=14;fillColor=#f8cecc;strokeColor=#b85450;" vertex="1" parent="1">
          <mxGeometry x="510" y="-10" width="120" height="80" as="geometry" />
        </mxCell>
        <mxCell id="Y_bpcdaq26l3CIiZRV6S-42" value="" style="endArrow=block;endSize=16;endFill=0;html=1;rounded=0;fillColor=#f8cecc;strokeColor=#b85450;" edge="1" parent="1" source="Y_bpcdaq26l3CIiZRV6S-41" target="Y_bpcdaq26l3CIiZRV6S-27">
          <mxGeometry width="160" relative="1" as="geometry">
            <mxPoint x="603" y="110" as="sourcePoint" />
            <mxPoint x="496.2876099013131" y="231.50201296053274" as="targetPoint" />
          </mxGeometry>
        </mxCell>
        <mxCell id="Y_bpcdaq26l3CIiZRV6S-43" value="&lt;font style=&quot;font-size: 36px;&quot;&gt;Diagramme de cas d&#39;utilisation de S.I de gestion des paiement de EHEI&lt;/font&gt;" style="text;html=1;strokeColor=none;fillColor=none;align=center;verticalAlign=middle;whiteSpace=wrap;rounded=0;" vertex="1" parent="1">
          <mxGeometry x="-151" y="-320" width="860" height="70" as="geometry" />
        </mxCell>
      </root>
    </mxGraphModel>
  </diagram>
  <diagram id="p4xdv5BpP25A05sRHIda" name="Modèle Conceptuel de Données">
    <mxGraphModel dx="1280" dy="870" grid="1" gridSize="10" guides="1" tooltips="1" connect="1" arrows="1" fold="1" page="0" pageScale="1" pageWidth="850" pageHeight="1100" math="0" shadow="0">
      <root>
        <mxCell id="0" />
        <mxCell id="1" parent="0" />
        <mxCell id="fLXpJm7yrMxdvDP5TUwN-3" value="Etudiant" style="swimlane;fontStyle=0;childLayout=stackLayout;horizontal=1;startSize=30;horizontalStack=0;resizeParent=1;resizeParentMax=0;resizeLast=0;collapsible=1;marginBottom=0;whiteSpace=wrap;html=1;" vertex="1" parent="1">
          <mxGeometry x="-170" y="130" width="140" height="240" as="geometry" />
        </mxCell>
        <mxCell id="fLXpJm7yrMxdvDP5TUwN-4" value="Id" style="text;strokeColor=none;fillColor=none;align=left;verticalAlign=middle;spacingLeft=4;spacingRight=4;overflow=hidden;points=[[0,0.5],[1,0.5]];portConstraint=eastwest;rotatable=0;whiteSpace=wrap;html=1;fontStyle=4" vertex="1" parent="fLXpJm7yrMxdvDP5TUwN-3">
          <mxGeometry y="30" width="140" height="30" as="geometry" />
        </mxCell>
        <mxCell id="fLXpJm7yrMxdvDP5TUwN-5" value="Nom" style="text;strokeColor=none;fillColor=none;align=left;verticalAlign=middle;spacingLeft=4;spacingRight=4;overflow=hidden;points=[[0,0.5],[1,0.5]];portConstraint=eastwest;rotatable=0;whiteSpace=wrap;html=1;" vertex="1" parent="fLXpJm7yrMxdvDP5TUwN-3">
          <mxGeometry y="60" width="140" height="30" as="geometry" />
        </mxCell>
        <mxCell id="fLXpJm7yrMxdvDP5TUwN-6" value="Prenom" style="text;strokeColor=none;fillColor=none;align=left;verticalAlign=middle;spacingLeft=4;spacingRight=4;overflow=hidden;points=[[0,0.5],[1,0.5]];portConstraint=eastwest;rotatable=0;whiteSpace=wrap;html=1;" vertex="1" parent="fLXpJm7yrMxdvDP5TUwN-3">
          <mxGeometry y="90" width="140" height="30" as="geometry" />
        </mxCell>
        <mxCell id="fLXpJm7yrMxdvDP5TUwN-8" value="Passe" style="text;strokeColor=none;fillColor=none;align=left;verticalAlign=middle;spacingLeft=4;spacingRight=4;overflow=hidden;points=[[0,0.5],[1,0.5]];portConstraint=eastwest;rotatable=0;whiteSpace=wrap;html=1;" vertex="1" parent="fLXpJm7yrMxdvDP5TUwN-3">
          <mxGeometry y="120" width="140" height="30" as="geometry" />
        </mxCell>
        <mxCell id="fLXpJm7yrMxdvDP5TUwN-16" value="Email" style="text;strokeColor=none;fillColor=none;align=left;verticalAlign=middle;spacingLeft=4;spacingRight=4;overflow=hidden;points=[[0,0.5],[1,0.5]];portConstraint=eastwest;rotatable=0;whiteSpace=wrap;html=1;" vertex="1" parent="fLXpJm7yrMxdvDP5TUwN-3">
          <mxGeometry y="150" width="140" height="30" as="geometry" />
        </mxCell>
        <mxCell id="fLXpJm7yrMxdvDP5TUwN-17" value="Login" style="text;strokeColor=none;fillColor=none;align=left;verticalAlign=middle;spacingLeft=4;spacingRight=4;overflow=hidden;points=[[0,0.5],[1,0.5]];portConstraint=eastwest;rotatable=0;whiteSpace=wrap;html=1;" vertex="1" parent="fLXpJm7yrMxdvDP5TUwN-3">
          <mxGeometry y="180" width="140" height="30" as="geometry" />
        </mxCell>
        <mxCell id="fLXpJm7yrMxdvDP5TUwN-7" value="Annee_Scolaire" style="text;strokeColor=none;fillColor=none;align=left;verticalAlign=middle;spacingLeft=4;spacingRight=4;overflow=hidden;points=[[0,0.5],[1,0.5]];portConstraint=eastwest;rotatable=0;whiteSpace=wrap;html=1;" vertex="1" parent="fLXpJm7yrMxdvDP5TUwN-3">
          <mxGeometry y="210" width="140" height="30" as="geometry" />
        </mxCell>
        <mxCell id="fLXpJm7yrMxdvDP5TUwN-9" value="Administrateur" style="swimlane;fontStyle=0;childLayout=stackLayout;horizontal=1;startSize=30;horizontalStack=0;resizeParent=1;resizeParentMax=0;resizeLast=0;collapsible=1;marginBottom=0;whiteSpace=wrap;html=1;" vertex="1" parent="1">
          <mxGeometry x="430" y="140" width="140" height="210" as="geometry" />
        </mxCell>
        <mxCell id="fLXpJm7yrMxdvDP5TUwN-10" value="Id" style="text;strokeColor=none;fillColor=none;align=left;verticalAlign=middle;spacingLeft=4;spacingRight=4;overflow=hidden;points=[[0,0.5],[1,0.5]];portConstraint=eastwest;rotatable=0;whiteSpace=wrap;html=1;fontStyle=4" vertex="1" parent="fLXpJm7yrMxdvDP5TUwN-9">
          <mxGeometry y="30" width="140" height="30" as="geometry" />
        </mxCell>
        <mxCell id="fLXpJm7yrMxdvDP5TUwN-11" value="Nom" style="text;strokeColor=none;fillColor=none;align=left;verticalAlign=middle;spacingLeft=4;spacingRight=4;overflow=hidden;points=[[0,0.5],[1,0.5]];portConstraint=eastwest;rotatable=0;whiteSpace=wrap;html=1;" vertex="1" parent="fLXpJm7yrMxdvDP5TUwN-9">
          <mxGeometry y="60" width="140" height="30" as="geometry" />
        </mxCell>
        <mxCell id="fLXpJm7yrMxdvDP5TUwN-12" value="Prenom" style="text;strokeColor=none;fillColor=none;align=left;verticalAlign=middle;spacingLeft=4;spacingRight=4;overflow=hidden;points=[[0,0.5],[1,0.5]];portConstraint=eastwest;rotatable=0;whiteSpace=wrap;html=1;" vertex="1" parent="fLXpJm7yrMxdvDP5TUwN-9">
          <mxGeometry y="90" width="140" height="30" as="geometry" />
        </mxCell>
        <mxCell id="fLXpJm7yrMxdvDP5TUwN-14" value="Passe" style="text;strokeColor=none;fillColor=none;align=left;verticalAlign=middle;spacingLeft=4;spacingRight=4;overflow=hidden;points=[[0,0.5],[1,0.5]];portConstraint=eastwest;rotatable=0;whiteSpace=wrap;html=1;" vertex="1" parent="fLXpJm7yrMxdvDP5TUwN-9">
          <mxGeometry y="120" width="140" height="30" as="geometry" />
        </mxCell>
        <mxCell id="fLXpJm7yrMxdvDP5TUwN-15" value="Email" style="text;strokeColor=none;fillColor=none;align=left;verticalAlign=middle;spacingLeft=4;spacingRight=4;overflow=hidden;points=[[0,0.5],[1,0.5]];portConstraint=eastwest;rotatable=0;whiteSpace=wrap;html=1;" vertex="1" parent="fLXpJm7yrMxdvDP5TUwN-9">
          <mxGeometry y="150" width="140" height="30" as="geometry" />
        </mxCell>
        <mxCell id="fLXpJm7yrMxdvDP5TUwN-18" value="Login" style="text;strokeColor=none;fillColor=none;align=left;verticalAlign=middle;spacingLeft=4;spacingRight=4;overflow=hidden;points=[[0,0.5],[1,0.5]];portConstraint=eastwest;rotatable=0;whiteSpace=wrap;html=1;" vertex="1" parent="fLXpJm7yrMxdvDP5TUwN-9">
          <mxGeometry y="180" width="140" height="30" as="geometry" />
        </mxCell>
        <mxCell id="XOuO2czlWcrW3By1tzwt-1" value="Facture" style="swimlane;fontStyle=0;childLayout=stackLayout;horizontal=1;startSize=30;horizontalStack=0;resizeParent=1;resizeParentMax=0;resizeLast=0;collapsible=1;marginBottom=0;whiteSpace=wrap;html=1;" vertex="1" parent="1">
          <mxGeometry x="390" y="430" width="140" height="60" as="geometry" />
        </mxCell>
        <mxCell id="XOuO2czlWcrW3By1tzwt-2" value="Id" style="text;strokeColor=none;fillColor=none;align=left;verticalAlign=middle;spacingLeft=4;spacingRight=4;overflow=hidden;points=[[0,0.5],[1,0.5]];portConstraint=eastwest;rotatable=0;whiteSpace=wrap;html=1;fontStyle=4" vertex="1" parent="XOuO2czlWcrW3By1tzwt-1">
          <mxGeometry y="30" width="140" height="30" as="geometry" />
        </mxCell>
        <mxCell id="XOuO2czlWcrW3By1tzwt-15" value="" style="group" vertex="1" connectable="0" parent="1">
          <mxGeometry x="130" y="250" width="110" height="80" as="geometry" />
        </mxCell>
        <mxCell id="XOuO2czlWcrW3By1tzwt-13" value="" style="shape=lineEllipse;perimeter=ellipsePerimeter;whiteSpace=wrap;html=1;backgroundOutline=1;" vertex="1" parent="XOuO2czlWcrW3By1tzwt-15">
          <mxGeometry width="110" height="80" as="geometry" />
        </mxCell>
        <mxCell id="XOuO2czlWcrW3By1tzwt-14" value="&lt;font style=&quot;font-size: 14px;&quot;&gt;Supprimer&lt;/font&gt;" style="text;html=1;strokeColor=none;fillColor=none;align=center;verticalAlign=middle;whiteSpace=wrap;rounded=0;" vertex="1" parent="XOuO2czlWcrW3By1tzwt-15">
          <mxGeometry x="25" y="10" width="60" height="30" as="geometry" />
        </mxCell>
        <mxCell id="XOuO2czlWcrW3By1tzwt-16" value="" style="endArrow=none;html=1;rounded=0;startArrow=classic;startFill=1;" edge="1" parent="1" source="fLXpJm7yrMxdvDP5TUwN-3" target="XOuO2czlWcrW3By1tzwt-13">
          <mxGeometry width="50" height="50" relative="1" as="geometry">
            <mxPoint x="80" y="220" as="sourcePoint" />
            <mxPoint x="130" y="170" as="targetPoint" />
          </mxGeometry>
        </mxCell>
        <mxCell id="XOuO2czlWcrW3By1tzwt-18" value="0,1" style="edgeLabel;html=1;align=center;verticalAlign=middle;resizable=0;points=[];" vertex="1" connectable="0" parent="XOuO2czlWcrW3By1tzwt-16">
          <mxGeometry x="-0.8021" y="-1" relative="1" as="geometry">
            <mxPoint y="1" as="offset" />
          </mxGeometry>
        </mxCell>
        <mxCell id="XOuO2czlWcrW3By1tzwt-17" value="" style="endArrow=none;html=1;rounded=0;" edge="1" parent="1" source="XOuO2czlWcrW3By1tzwt-13" target="fLXpJm7yrMxdvDP5TUwN-9">
          <mxGeometry width="50" height="50" relative="1" as="geometry">
            <mxPoint x="-20" y="233" as="sourcePoint" />
            <mxPoint x="146" y="169" as="targetPoint" />
          </mxGeometry>
        </mxCell>
        <mxCell id="XOuO2czlWcrW3By1tzwt-19" value="&lt;div&gt;0,n&lt;/div&gt;" style="edgeLabel;html=1;align=center;verticalAlign=middle;resizable=0;points=[];" vertex="1" connectable="0" parent="XOuO2czlWcrW3By1tzwt-17">
          <mxGeometry x="0.8472" relative="1" as="geometry">
            <mxPoint as="offset" />
          </mxGeometry>
        </mxCell>
        <mxCell id="XOuO2czlWcrW3By1tzwt-27" value="" style="group" vertex="1" connectable="0" parent="1">
          <mxGeometry x="80" y="470" width="140" height="100" as="geometry" />
        </mxCell>
        <mxCell id="XOuO2czlWcrW3By1tzwt-21" value="" style="shape=lineEllipse;perimeter=ellipsePerimeter;whiteSpace=wrap;html=1;backgroundOutline=1;" vertex="1" parent="XOuO2czlWcrW3By1tzwt-27">
          <mxGeometry width="140" height="100" as="geometry" />
        </mxCell>
        <mxCell id="XOuO2czlWcrW3By1tzwt-22" value="&lt;font style=&quot;font-size: 14px;&quot;&gt;Effectuer un paiement&lt;/font&gt;" style="text;html=1;strokeColor=none;fillColor=none;align=center;verticalAlign=middle;whiteSpace=wrap;rounded=0;" vertex="1" parent="XOuO2czlWcrW3By1tzwt-27">
          <mxGeometry x="20" y="20" width="100" height="20" as="geometry" />
        </mxCell>
        <mxCell id="XOuO2czlWcrW3By1tzwt-24" value="Date_Paiement" style="text;html=1;strokeColor=none;fillColor=none;align=center;verticalAlign=middle;whiteSpace=wrap;rounded=0;" vertex="1" parent="XOuO2czlWcrW3By1tzwt-27">
          <mxGeometry x="40" y="50" width="60" height="30" as="geometry" />
        </mxCell>
        <mxCell id="XOuO2czlWcrW3By1tzwt-28" value="" style="endArrow=none;html=1;rounded=0;" edge="1" parent="1" source="fLXpJm7yrMxdvDP5TUwN-3" target="XOuO2czlWcrW3By1tzwt-21">
          <mxGeometry width="50" height="50" relative="1" as="geometry">
            <mxPoint x="50" y="440" as="sourcePoint" />
            <mxPoint x="100" y="390" as="targetPoint" />
          </mxGeometry>
        </mxCell>
        <mxCell id="XOuO2czlWcrW3By1tzwt-31" value="0,n" style="edgeLabel;html=1;align=center;verticalAlign=middle;resizable=0;points=[];" vertex="1" connectable="0" parent="XOuO2czlWcrW3By1tzwt-28">
          <mxGeometry x="-0.8076" y="2" relative="1" as="geometry">
            <mxPoint as="offset" />
          </mxGeometry>
        </mxCell>
        <mxCell id="XOuO2czlWcrW3By1tzwt-29" value="" style="endArrow=none;html=1;rounded=0;" edge="1" parent="1" source="XOuO2czlWcrW3By1tzwt-21" target="XOuO2czlWcrW3By1tzwt-1">
          <mxGeometry width="50" height="50" relative="1" as="geometry">
            <mxPoint x="-20" y="314" as="sourcePoint" />
            <mxPoint x="122" y="423" as="targetPoint" />
          </mxGeometry>
        </mxCell>
        <mxCell id="XOuO2czlWcrW3By1tzwt-32" value="1,1" style="edgeLabel;html=1;align=center;verticalAlign=middle;resizable=0;points=[];" vertex="1" connectable="0" parent="XOuO2czlWcrW3By1tzwt-29">
          <mxGeometry x="0.8027" y="1" relative="1" as="geometry">
            <mxPoint as="offset" />
          </mxGeometry>
        </mxCell>
        <mxCell id="U9dvrsGl_JqvgkqLc1zF-4" value="" style="group" vertex="1" connectable="0" parent="1">
          <mxGeometry x="130" y="60" width="110" height="80" as="geometry" />
        </mxCell>
        <mxCell id="U9dvrsGl_JqvgkqLc1zF-5" value="" style="shape=lineEllipse;perimeter=ellipsePerimeter;whiteSpace=wrap;html=1;backgroundOutline=1;" vertex="1" parent="U9dvrsGl_JqvgkqLc1zF-4">
          <mxGeometry width="110" height="80" as="geometry" />
        </mxCell>
        <mxCell id="U9dvrsGl_JqvgkqLc1zF-6" value="&lt;font style=&quot;font-size: 14px;&quot;&gt;Ajouter&lt;/font&gt;" style="text;html=1;strokeColor=none;fillColor=none;align=center;verticalAlign=middle;whiteSpace=wrap;rounded=0;" vertex="1" parent="U9dvrsGl_JqvgkqLc1zF-4">
          <mxGeometry x="25" y="10" width="60" height="30" as="geometry" />
        </mxCell>
        <mxCell id="U9dvrsGl_JqvgkqLc1zF-7" value="" style="endArrow=none;html=1;rounded=0;startArrow=classic;startFill=1;" edge="1" parent="1" target="U9dvrsGl_JqvgkqLc1zF-5" source="fLXpJm7yrMxdvDP5TUwN-3">
          <mxGeometry width="50" height="50" relative="1" as="geometry">
            <mxPoint x="-30" y="70" as="sourcePoint" />
            <mxPoint x="130" y="-20" as="targetPoint" />
          </mxGeometry>
        </mxCell>
        <mxCell id="U9dvrsGl_JqvgkqLc1zF-8" value="1,1" style="edgeLabel;html=1;align=center;verticalAlign=middle;resizable=0;points=[];" vertex="1" connectable="0" parent="U9dvrsGl_JqvgkqLc1zF-7">
          <mxGeometry x="-0.8021" y="-1" relative="1" as="geometry">
            <mxPoint y="1" as="offset" />
          </mxGeometry>
        </mxCell>
        <mxCell id="U9dvrsGl_JqvgkqLc1zF-9" value="" style="endArrow=none;html=1;rounded=0;" edge="1" parent="1" source="U9dvrsGl_JqvgkqLc1zF-5" target="fLXpJm7yrMxdvDP5TUwN-9">
          <mxGeometry width="50" height="50" relative="1" as="geometry">
            <mxPoint x="-20" y="43" as="sourcePoint" />
            <mxPoint x="430" y="65" as="targetPoint" />
          </mxGeometry>
        </mxCell>
        <mxCell id="U9dvrsGl_JqvgkqLc1zF-10" value="&lt;div&gt;0,n&lt;/div&gt;" style="edgeLabel;html=1;align=center;verticalAlign=middle;resizable=0;points=[];" vertex="1" connectable="0" parent="U9dvrsGl_JqvgkqLc1zF-9">
          <mxGeometry x="0.8472" relative="1" as="geometry">
            <mxPoint as="offset" />
          </mxGeometry>
        </mxCell>
        <mxCell id="S8A2-jKF2TTBNcCPMGpf-1" value="&lt;font style=&quot;font-size: 36px;&quot;&gt;Modèle Conceptuel de Données&lt;br&gt;&lt;/font&gt;" style="text;html=1;strokeColor=none;fillColor=none;align=center;verticalAlign=middle;whiteSpace=wrap;rounded=0;" vertex="1" parent="1">
          <mxGeometry x="-230" y="-60" width="860" height="70" as="geometry" />
        </mxCell>
      </root>
    </mxGraphModel>
  </diagram>
  <diagram id="TkexTxRCUjUuVSKVOQbz" name="Modèle Logique de données">
    <mxGraphModel dx="978" dy="522" grid="1" gridSize="10" guides="1" tooltips="1" connect="1" arrows="1" fold="1" page="0" pageScale="1" pageWidth="850" pageHeight="1100" math="0" shadow="0">
      <root>
        <mxCell id="0" />
        <mxCell id="1" parent="0" />
        <mxCell id="tRNBzl4piSs32QsZDn-Q-1" value="Etudiant" style="swimlane;fontStyle=0;childLayout=stackLayout;horizontal=1;startSize=30;horizontalStack=0;resizeParent=1;resizeParentMax=0;resizeLast=0;collapsible=1;marginBottom=0;whiteSpace=wrap;html=1;" vertex="1" parent="1">
          <mxGeometry x="180" y="350" width="170" height="300" as="geometry" />
        </mxCell>
        <mxCell id="tRNBzl4piSs32QsZDn-Q-2" value="Id" style="text;strokeColor=none;fillColor=none;align=left;verticalAlign=middle;spacingLeft=4;spacingRight=4;overflow=hidden;points=[[0,0.5],[1,0.5]];portConstraint=eastwest;rotatable=0;whiteSpace=wrap;html=1;fontStyle=4" vertex="1" parent="tRNBzl4piSs32QsZDn-Q-1">
          <mxGeometry y="30" width="170" height="30" as="geometry" />
        </mxCell>
        <mxCell id="tRNBzl4piSs32QsZDn-Q-42" value="&amp;nbsp;#Id_Admin_Ajouter_Par" style="text;strokeColor=none;fillColor=none;align=left;verticalAlign=middle;spacingLeft=4;spacingRight=4;overflow=hidden;points=[[0,0.5],[1,0.5]];portConstraint=eastwest;rotatable=0;whiteSpace=wrap;html=1;" vertex="1" parent="tRNBzl4piSs32QsZDn-Q-1">
          <mxGeometry y="60" width="170" height="30" as="geometry" />
        </mxCell>
        <mxCell id="tRNBzl4piSs32QsZDn-Q-41" value="&amp;nbsp;#Id_Admin_Supprimer_Par" style="text;strokeColor=none;fillColor=none;align=left;verticalAlign=middle;spacingLeft=4;spacingRight=4;overflow=hidden;points=[[0,0.5],[1,0.5]];portConstraint=eastwest;rotatable=0;whiteSpace=wrap;html=1;" vertex="1" parent="tRNBzl4piSs32QsZDn-Q-1">
          <mxGeometry y="90" width="170" height="30" as="geometry" />
        </mxCell>
        <mxCell id="tRNBzl4piSs32QsZDn-Q-3" value="Nom" style="text;strokeColor=none;fillColor=none;align=left;verticalAlign=middle;spacingLeft=4;spacingRight=4;overflow=hidden;points=[[0,0.5],[1,0.5]];portConstraint=eastwest;rotatable=0;whiteSpace=wrap;html=1;" vertex="1" parent="tRNBzl4piSs32QsZDn-Q-1">
          <mxGeometry y="120" width="170" height="30" as="geometry" />
        </mxCell>
        <mxCell id="tRNBzl4piSs32QsZDn-Q-4" value="Prenom" style="text;strokeColor=none;fillColor=none;align=left;verticalAlign=middle;spacingLeft=4;spacingRight=4;overflow=hidden;points=[[0,0.5],[1,0.5]];portConstraint=eastwest;rotatable=0;whiteSpace=wrap;html=1;" vertex="1" parent="tRNBzl4piSs32QsZDn-Q-1">
          <mxGeometry y="150" width="170" height="30" as="geometry" />
        </mxCell>
        <mxCell id="tRNBzl4piSs32QsZDn-Q-5" value="Passe" style="text;strokeColor=none;fillColor=none;align=left;verticalAlign=middle;spacingLeft=4;spacingRight=4;overflow=hidden;points=[[0,0.5],[1,0.5]];portConstraint=eastwest;rotatable=0;whiteSpace=wrap;html=1;" vertex="1" parent="tRNBzl4piSs32QsZDn-Q-1">
          <mxGeometry y="180" width="170" height="30" as="geometry" />
        </mxCell>
        <mxCell id="tRNBzl4piSs32QsZDn-Q-6" value="Email" style="text;strokeColor=none;fillColor=none;align=left;verticalAlign=middle;spacingLeft=4;spacingRight=4;overflow=hidden;points=[[0,0.5],[1,0.5]];portConstraint=eastwest;rotatable=0;whiteSpace=wrap;html=1;" vertex="1" parent="tRNBzl4piSs32QsZDn-Q-1">
          <mxGeometry y="210" width="170" height="30" as="geometry" />
        </mxCell>
        <mxCell id="tRNBzl4piSs32QsZDn-Q-7" value="Login" style="text;strokeColor=none;fillColor=none;align=left;verticalAlign=middle;spacingLeft=4;spacingRight=4;overflow=hidden;points=[[0,0.5],[1,0.5]];portConstraint=eastwest;rotatable=0;whiteSpace=wrap;html=1;" vertex="1" parent="tRNBzl4piSs32QsZDn-Q-1">
          <mxGeometry y="240" width="170" height="30" as="geometry" />
        </mxCell>
        <mxCell id="tRNBzl4piSs32QsZDn-Q-8" value="Annee_Scolaire" style="text;strokeColor=none;fillColor=none;align=left;verticalAlign=middle;spacingLeft=4;spacingRight=4;overflow=hidden;points=[[0,0.5],[1,0.5]];portConstraint=eastwest;rotatable=0;whiteSpace=wrap;html=1;" vertex="1" parent="tRNBzl4piSs32QsZDn-Q-1">
          <mxGeometry y="270" width="170" height="30" as="geometry" />
        </mxCell>
        <mxCell id="tRNBzl4piSs32QsZDn-Q-9" value="Administrateur" style="swimlane;fontStyle=0;childLayout=stackLayout;horizontal=1;startSize=30;horizontalStack=0;resizeParent=1;resizeParentMax=0;resizeLast=0;collapsible=1;marginBottom=0;whiteSpace=wrap;html=1;" vertex="1" parent="1">
          <mxGeometry x="810" y="360" width="140" height="210" as="geometry" />
        </mxCell>
        <mxCell id="tRNBzl4piSs32QsZDn-Q-10" value="Id" style="text;strokeColor=none;fillColor=none;align=left;verticalAlign=middle;spacingLeft=4;spacingRight=4;overflow=hidden;points=[[0,0.5],[1,0.5]];portConstraint=eastwest;rotatable=0;whiteSpace=wrap;html=1;fontStyle=4" vertex="1" parent="tRNBzl4piSs32QsZDn-Q-9">
          <mxGeometry y="30" width="140" height="30" as="geometry" />
        </mxCell>
        <mxCell id="tRNBzl4piSs32QsZDn-Q-11" value="Nom" style="text;strokeColor=none;fillColor=none;align=left;verticalAlign=middle;spacingLeft=4;spacingRight=4;overflow=hidden;points=[[0,0.5],[1,0.5]];portConstraint=eastwest;rotatable=0;whiteSpace=wrap;html=1;" vertex="1" parent="tRNBzl4piSs32QsZDn-Q-9">
          <mxGeometry y="60" width="140" height="30" as="geometry" />
        </mxCell>
        <mxCell id="tRNBzl4piSs32QsZDn-Q-12" value="Prenom" style="text;strokeColor=none;fillColor=none;align=left;verticalAlign=middle;spacingLeft=4;spacingRight=4;overflow=hidden;points=[[0,0.5],[1,0.5]];portConstraint=eastwest;rotatable=0;whiteSpace=wrap;html=1;" vertex="1" parent="tRNBzl4piSs32QsZDn-Q-9">
          <mxGeometry y="90" width="140" height="30" as="geometry" />
        </mxCell>
        <mxCell id="tRNBzl4piSs32QsZDn-Q-13" value="Passe" style="text;strokeColor=none;fillColor=none;align=left;verticalAlign=middle;spacingLeft=4;spacingRight=4;overflow=hidden;points=[[0,0.5],[1,0.5]];portConstraint=eastwest;rotatable=0;whiteSpace=wrap;html=1;" vertex="1" parent="tRNBzl4piSs32QsZDn-Q-9">
          <mxGeometry y="120" width="140" height="30" as="geometry" />
        </mxCell>
        <mxCell id="tRNBzl4piSs32QsZDn-Q-14" value="Email" style="text;strokeColor=none;fillColor=none;align=left;verticalAlign=middle;spacingLeft=4;spacingRight=4;overflow=hidden;points=[[0,0.5],[1,0.5]];portConstraint=eastwest;rotatable=0;whiteSpace=wrap;html=1;" vertex="1" parent="tRNBzl4piSs32QsZDn-Q-9">
          <mxGeometry y="150" width="140" height="30" as="geometry" />
        </mxCell>
        <mxCell id="tRNBzl4piSs32QsZDn-Q-15" value="Login" style="text;strokeColor=none;fillColor=none;align=left;verticalAlign=middle;spacingLeft=4;spacingRight=4;overflow=hidden;points=[[0,0.5],[1,0.5]];portConstraint=eastwest;rotatable=0;whiteSpace=wrap;html=1;" vertex="1" parent="tRNBzl4piSs32QsZDn-Q-9">
          <mxGeometry y="180" width="140" height="30" as="geometry" />
        </mxCell>
        <mxCell id="tRNBzl4piSs32QsZDn-Q-40" value="&lt;font style=&quot;font-size: 36px;&quot;&gt;Modèle Logique de Données&lt;br&gt;&lt;/font&gt;" style="text;html=1;strokeColor=none;fillColor=none;align=center;verticalAlign=middle;whiteSpace=wrap;rounded=0;" vertex="1" parent="1">
          <mxGeometry x="150" y="160" width="860" height="70" as="geometry" />
        </mxCell>
        <mxCell id="tRNBzl4piSs32QsZDn-Q-46" value="Facture" style="swimlane;fontStyle=0;childLayout=stackLayout;horizontal=1;startSize=30;horizontalStack=0;resizeParent=1;resizeParentMax=0;resizeLast=0;collapsible=1;marginBottom=0;whiteSpace=wrap;html=1;" vertex="1" parent="1">
          <mxGeometry x="740" y="650" width="140" height="120" as="geometry" />
        </mxCell>
        <mxCell id="tRNBzl4piSs32QsZDn-Q-47" value="Id" style="text;strokeColor=none;fillColor=none;align=left;verticalAlign=middle;spacingLeft=4;spacingRight=4;overflow=hidden;points=[[0,0.5],[1,0.5]];portConstraint=eastwest;rotatable=0;whiteSpace=wrap;html=1;fontStyle=4" vertex="1" parent="tRNBzl4piSs32QsZDn-Q-46">
          <mxGeometry y="30" width="140" height="30" as="geometry" />
        </mxCell>
        <mxCell id="tRNBzl4piSs32QsZDn-Q-48" value="#Id_Etudiant" style="text;strokeColor=none;fillColor=none;align=left;verticalAlign=middle;spacingLeft=4;spacingRight=4;overflow=hidden;points=[[0,0.5],[1,0.5]];portConstraint=eastwest;rotatable=0;whiteSpace=wrap;html=1;" vertex="1" parent="tRNBzl4piSs32QsZDn-Q-46">
          <mxGeometry y="60" width="140" height="30" as="geometry" />
        </mxCell>
        <mxCell id="tRNBzl4piSs32QsZDn-Q-49" value="Date_Paiement" style="text;strokeColor=none;fillColor=none;align=left;verticalAlign=middle;spacingLeft=4;spacingRight=4;overflow=hidden;points=[[0,0.5],[1,0.5]];portConstraint=eastwest;rotatable=0;whiteSpace=wrap;html=1;" vertex="1" parent="tRNBzl4piSs32QsZDn-Q-46">
          <mxGeometry y="90" width="140" height="30" as="geometry" />
        </mxCell>
        <mxCell id="tRNBzl4piSs32QsZDn-Q-53" value="" style="endArrow=classic;html=1;rounded=0;" edge="1" parent="1" source="tRNBzl4piSs32QsZDn-Q-1" target="tRNBzl4piSs32QsZDn-Q-46">
          <mxGeometry width="50" height="50" relative="1" as="geometry">
            <mxPoint x="680" y="550" as="sourcePoint" />
            <mxPoint x="500" y="540" as="targetPoint" />
          </mxGeometry>
        </mxCell>
        <mxCell id="tRNBzl4piSs32QsZDn-Q-54" value="" style="endArrow=classic;html=1;rounded=0;" edge="1" parent="1" source="tRNBzl4piSs32QsZDn-Q-9" target="tRNBzl4piSs32QsZDn-Q-1">
          <mxGeometry width="50" height="50" relative="1" as="geometry">
            <mxPoint x="750" y="693" as="sourcePoint" />
            <mxPoint x="570" y="340" as="targetPoint" />
            <Array as="points" />
          </mxGeometry>
        </mxCell>
      </root>
    </mxGraphModel>
  </diagram>
</mxfile>
